<svg width="256" height="256" viewBox="0 0 256 256" fill="none" xmlns="http://www.w3.org/2000/svg">
<g clip-path="url(#clip0_18_3)">
<rect width="256" height="256" fill="white"/>
<path fill-rule="evenodd" clip-rule="evenodd" d="M256 0H0V256H256V0ZM135.071 40.9289C138.976 44.8342 138.976 51.1658 135.071 55.0711L95.0711 95.0711C91.1659 98.9763 84.8342 98.9763 80.929 95.0711C77.0237 91.1658 77.0237 84.8342 80.929 80.9289L120.929 40.9289C124.834 37.0237 131.166 37.0237 135.071 40.9289ZM175.071 40.9289C178.976 44.8342 178.976 51.1658 175.071 55.0711L112.142 118H168C173.523 118 178 122.477 178 128C178 133.523 173.523 138 168 138H88C83.9554 138 80.3091 135.564 78.7613 131.827C77.2134 128.09 78.069 123.789 80.929 120.929L160.929 40.9289C164.834 37.0237 171.166 37.0237 175.071 40.9289ZM175.071 160.929C178.976 164.834 178.976 171.166 175.071 175.071L135.071 215.071C131.166 218.976 124.834 218.976 120.929 215.071C117.024 211.166 117.024 204.834 120.929 200.929L160.929 160.929C164.834 157.024 171.166 157.024 175.071 160.929Z" fill="#ACACAC"/>
</g>
<defs>
<clipPath id="clip0_18_3">
<rect width="256" height="256" fill="white"/>
</clipPath>
</defs>
</svg>
